<svg height="512" viewBox="0 0 54 60" width="512" xmlns="http://www.w3.org/2000/svg"><g id="008---ATM"><path id="Shape" d="m10.789 17h19.475c.326972-.0000767.6332544-.1599985.8201983-.428257.1869439-.2682586.230934-.6109666.1178017-.917743l-4.053-11c-.1448909-.39289482-.5192403-.65390179-.938-.654h-19.475c-.32661844.00072953-.6322971.16092007-.81877106.429076-.18647395.26815592-.23024002.61047885-.11722894.916924l4.053 11c.14463666.3922087.517973.6530655.936.654zm14.725-11 3.315 9h-17.343l-3.315-9z"/><path id="Shape" d="m1 15.212v36.959c-.00253492.7964142.31404016 1.5606602.879 2.122l5.413 5.413c.09300813.093003.20344991.1667441.325.217.12141624.050422.25153097.0765809.383.077h28c.5522847 0 1-.4477153 1-1v-3h13c2.209139 0 4-1.790861 4-4v-25c0-2.209139-1.790861-4-4-4h-13v-3c-.0017515-.0111154-.0040881-.0221307-.007-.033-.0008912-.1066576-.019477-.2124279-.055-.313l-7-19c-.1448909-.39289482-.5192403-.65390179-.938-.654h-28c-.1195834.0022745-.23778895.02598335-.349.07-.022.009-.043.015-.064.03-.10097644.04558612-.19359398.10778184-.274.184-.013.016-.029.028-.045.045-.03172137.03115348-.06113245.06457516-.088.1-.03127398.04810471-.05805362.09898603-.08.152-.008.019-.018.027-.024.043-.04234197.10853361-.06568285.22354665-.069.34 0 .012-.007.023-.007.036v8.538c-.00070962 1.0846773.18917752 2.1610429.561 3.18.29125024.7992117.43984166 1.6433735.439 2.494zm2 36.959v-36.959c.00070962-1.0846773-.18917752-2.1610429-.561-3.18-.29125024-.7992117-.43984166-1.6433735-.439-2.494l-.00000356-2.931 5.00000356 13.572v36.407l-3.707-3.707c-.18779456-.1877377-.29320875-.4424587-.293-.708zm39-27.171v29h-9c-1.1045695 0-2-.8954305-2-2v-25c0-1.1045695.8954305-2 2-2zm10 2v25c0 1.1045695-.8954305 2-2 2h-1v-29h1c1.1045695 0 2 .8954305 2 2zm-5-2v29h-3v-29zm-14-2c-2.209139 0-4 1.790861-4 4v25c0 2.209139 1.790861 4 4 4h2v2h-26v-37h26v2zm-4.7-21 6.262 17h-25.862l-6.265-17z"/><path id="Shape" d="m12.707 10.707 2-2c.2599566-.25107447.3642126-.62287789.2726972-.97250732-.0915155-.34962944-.3645604-.6226744-.7141899-.71418984-.3496294-.09151544-.7214328.01274058-.9725073.27269716l-2 2c-.2599566.25107447-.3642126.62287789-.2726972.9725073.0915155.3496295.3645604.6226744.7141899.7141899.3496294.0915154.7214328-.0127406.9725073-.2726972z"/><path id="Shape" d="m13.293 13.707c.3904999.3903819 1.0235001.3903819 1.414 0l5-5c.2599566-.25107447.3642126-.62287789.2726972-.97250732-.0915155-.34962944-.3645604-.6226744-.7141899-.71418984-.3496294-.09151544-.7214328.01274058-.9725073.27269716l-5 5c-.3903819.3904999-.3903819 1.0235001 0 1.414z"/><path id="Shape" d="m25 25h-6c-1.1045695 0-2 .8954305-2 2v2c0 1.1045695.8954305 2 2 2h6c1.1045695 0 2-.8954305 2-2v-2c0-1.1045695-.8954305-2-2-2zm-6 4v-2h6v2z"/><path id="Shape" d="m12 23c-.5522847 0-1 .4477153-1 1v2c0 .5522847.4477153 1 1 1s1-.4477153 1-1v-2c0-.5522847-.4477153-1-1-1z"/><path id="Shape" d="m12 29c-.5522847 0-1 .4477153-1 1v25c0 .5522847.4477153 1 1 1s1-.4477153 1-1v-25c0-.5522847-.4477153-1-1-1z"/><path id="Shape" d="m34.058 46c-1.0201399.9935649-1.3366049 2.5061463-.8003454 3.8253439.5362595 1.3191975 1.8183171 2.1819726 3.2423454 2.1819726s2.7060859-.8627751 3.2423454-2.1819726c.5362595-1.3191976.2197945-2.831779-.8003454-3.8253439 1.0201399-.9935649 1.3366049-2.5061463.8003454-3.8253439-.5362595-1.3191975-1.8183171-2.1819726-3.2423454-2.1819726s-2.7060859.8627751-3.2423454 2.1819726c-.5362595 1.3191976-.2197945 2.831779.8003454 3.8253439zm3.942 2.5c0 .8284271-.6715729 1.5-1.5 1.5s-1.5-.6715729-1.5-1.5.6715729-1.5 1.5-1.5 1.5.6715729 1.5 1.5zm-1.5-6.5c.8284271 0 1.5.6715729 1.5 1.5s-.6715729 1.5-1.5 1.5-1.5-.6715729-1.5-1.5.6715729-1.5 1.5-1.5z"/></g></svg>