<?xml version="1.0" encoding="UTF-8" standalone="no"?>
<svg
   xmlns:dc="http://purl.org/dc/elements/1.1/"
   xmlns:cc="http://creativecommons.org/ns#"
   xmlns:rdf="http://www.w3.org/1999/02/22-rdf-syntax-ns#"
   xmlns:svg="http://www.w3.org/2000/svg"
   xmlns="http://www.w3.org/2000/svg"
   xmlns:sodipodi="http://sodipodi.sourceforge.net/DTD/sodipodi-0.dtd"
   xmlns:inkscape="http://www.inkscape.org/namespaces/inkscape"
   version="1.1"
   id="Capa_1"
   x="0px"
   y="0px"
   viewBox="0 0 480 480"
   style="enable-background:new 0 0 480 480;"
   xml:space="preserve"
   sodipodi:docname="exchange-currency.svg"
   inkscape:version="1.0.2-2 (e86c870879, 2021-01-15)"><metadata
   id="metadata178"><rdf:RDF><cc:Work
       rdf:about=""><dc:format>image/svg+xml</dc:format><dc:type
         rdf:resource="http://purl.org/dc/dcmitype/StillImage" /><dc:title></dc:title></cc:Work></rdf:RDF></metadata><defs
   id="defs176" /><sodipodi:namedview
   pagecolor="#ffffff"
   bordercolor="#666666"
   borderopacity="1"
   objecttolerance="10"
   gridtolerance="10"
   guidetolerance="10"
   inkscape:pageopacity="0"
   inkscape:pageshadow="2"
   inkscape:window-width="1920"
   inkscape:window-height="986"
   id="namedview174"
   showgrid="false"
   inkscape:zoom="1.5958333"
   inkscape:cx="95.937673"
   inkscape:cy="210.58766"
   inkscape:window-x="-11"
   inkscape:window-y="-11"
   inkscape:window-maximized="1"
   inkscape:current-layer="Capa_1" />
<g
   id="g99">
	<g
   id="g97">
		<path
   d="M344,240c-57.438,0-104,46.562-104,104s46.562,104,104,104s104-46.562,104-104C447.934,286.59,401.41,240.066,344,240z     M344,432c-48.601,0-88-39.399-88-88c0-48.601,39.399-88,88-88c48.601,0,88,39.399,88,88C431.943,392.577,392.577,431.943,344,432    z"
   id="path95" />
	</g>
</g>

<g
   id="g111">
	<g
   id="g109">
		<path
   d="M344,208c-75.111,0-136,60.889-136,136s60.889,136,136,136s136-60.889,136-136C479.916,268.924,419.076,208.084,344,208z     M344,464c-66.274,0-120-53.726-120-120s53.726-120,120-120s120,53.726,120,120C463.925,410.243,410.243,463.925,344,464z"
   id="path107" />
	</g>
</g>
<g
   id="g117">
	<g
   id="g115">
		<path
   d="M136,32C78.562,32,32,78.562,32,136s46.562,104,104,104c57.41-0.066,103.934-46.59,104-104C240,78.562,193.438,32,136,32z     M136,224c-48.577-0.057-87.943-39.423-88-88c0-48.601,39.399-88,88-88s88,39.399,88,88S184.601,224,136,224z"
   id="path113" />
	</g>
</g>
<g
   id="g123">
	<g
   id="g121">
		<path
   d="M136,0C60.889,0,0,60.889,0,136s60.889,136,136,136c75.076-0.084,135.916-60.924,136-136C272,60.889,211.111,0,136,0z     M136,256c-66.243-0.075-119.925-53.757-120-120C16,69.726,69.726,16,136,16s120,53.726,120,120S202.274,256,136,256z"
   id="path119" />
	</g>
</g>
<g
   id="g129"
   style="stroke-width:3779.52758789;stroke-miterlimit:4;stroke-dasharray:none">
	<g
   id="g127"
   style="stroke-width:3779.52758789;stroke-miterlimit:4;stroke-dasharray:none">
		<path
   d="M136,128c-13.008,0-24-7.328-24-16s10.992-16,24-16s24,7.328,24,16c0,4.418,3.582,8,8,8s8-3.582,8-8    c0-15.456-13.768-28.376-32-31.352V64h-16v16.648C109.768,83.624,96,96.544,96,112c0,17.648,17.944,32,40,32    c13.008,0,24,7.328,24,16s-10.992,16-24,16s-24-7.328-24-16c0-4.418-3.582-8-8-8s-8,3.582-8,8c0,15.456,13.768,28.376,32,31.352    V208h16v-16.648c18.232-2.976,32-15.896,32-31.352C176,142.352,158.056,128,136,128z"
   id="path125"
   style="stroke-width:3779.52758789;stroke-miterlimit:4;stroke-dasharray:none" />
	</g>
</g>
<g
   id="g135">
	<g
   id="g133">
		<path
   d="M344,80h-36.688l20.28-20.288L316.28,48.4L276.688,88l39.592,39.6l11.312-11.312L307.312,96H344    c39.746,0.044,71.956,32.254,72,72v40h16v-40C431.943,119.423,392.577,80.057,344,80z"
   id="path131" />
	</g>
</g>
<g
   id="g141">
	<g
   id="g139">
		<path
   d="M155.72,352.4l-11.312,11.312L164.688,384H136c-39.746-0.044-71.956-32.254-72-72v-40H48v40    c0.057,48.577,39.423,87.943,88,88h28.688l-20.28,20.288L155.72,431.6l39.592-39.6L155.72,352.4z"
   id="path137" />
	</g>
</g>
<g
   id="g143">
</g>
<g
   id="g145">
</g>
<g
   id="g147">
</g>
<g
   id="g149">
</g>
<g
   id="g151">
</g>
<g
   id="g153">
</g>
<g
   id="g155">
</g>
<g
   id="g157">
</g>
<g
   id="g159">
</g>
<g
   id="g161">
</g>
<g
   id="g163">
</g>
<g
   id="g165">
</g>
<g
   id="g167">
</g>
<g
   id="g169">
</g>
<g
   id="g171">
</g>
<path
   style="mix-blend-mode:normal;stroke-width:996.4;stroke-miterlimit:4;stroke-dasharray:none"
   d="m 381.52536,389.61071 h -54.21 c 9.379,-13.315 11.784,-22.193 10.369,-37.255 h 15.917 c 5.523,0 10,-4.478 10,-10 0,-5.522 -4.477,-10 -10,-10 h -20.844 c -3.506,-5.342 -9.475,-16.284 -9.436,-25.235 -0.021,-5.691 2.466,-9.868 7.601,-12.768 7.862,-4.439 20.539,-4.523 27.68,-0.18 5.686,3.457 9.975,8.272 11.193,12.566 1.507,5.312 7.034,8.397 12.35,6.891 5.313,-1.507 8.398,-7.036 6.891,-12.35 -2.617,-9.224 -9.922,-18.043 -20.043,-24.19699 -13.438,-8.171 -33.585,-8.231 -47.905,-0.146 -11.503,6.49599 -17.813,17.23999 -17.767,30.17599 -0.039,9.104 3.084,18.112 6.499,25.242 h -8.318 c -5.523,0 -10,4.478 -10,10 0,5.522 4.477,10 10,10 h 16.083 l 0.029,0.245 c 1.292,11.55 0.604,15.841 -8.679,28.29 l -9.578,12.698 c -2.284,3.027 -2.659,7.087 -0.967,10.481 1.691,3.395 5.158,5.54 8.95,5.54 h 74.186 c 5.523,0 10,-4.478 10,-10 0,-5.522 -4.478,-9.998 -10.001,-9.998 z"
   id="XMLID_1129_" /></svg>
